<svg width="238" height="110" viewBox="0 0 238 110" fill="none" xmlns="http://www.w3.org/2000/svg">
<g clip-path="url(#clip0_3_3214)">
<path fill-rule="evenodd" clip-rule="evenodd" d="M189.135 89.198C192.759 98.876 196.174 107.997 204.848 107.385C212.733 106.837 224.581 104.862 238 102.129V104.169C224.655 106.878 212.875 108.832 204.987 109.38C204.656 109.403 204.33 109.414 204.012 109.414C194.571 109.414 190.836 99.442 187.22 89.787C183.649 80.251 180.274 71.242 171.831 72.827C158.745 75.282 147.483 76.366 134.446 77.621L134.422 77.623C126.352 78.399 117.205 79.28 106.581 80.603C101.952 81.183 98.4649 82.198 95.6619 83.014L95.6459 83.019C88.9659 84.966 85.6139 85.943 80.7489 76.752C77.1289 69.91 72.2079 68.925 66.5089 67.785C61.7159 66.826 56.2829 65.739 50.8579 61.025C40.6399 52.141 15.4799 20.345 0.659912 0H3.12991C17.9499 20.254 42.2189 50.863 52.1719 59.515C57.1949 63.882 62.1279 64.869 66.9019 65.825C72.8419 67.012 78.4539 68.135 82.5179 75.816C85.9609 82.326 87.9079 82.957 92.2909 81.873C88.9799 82.063 86.5649 80.418 83.5229 74.499C79.9899 67.623 75.4589 66.696 69.7229 65.523C65.0809 64.574 59.8209 63.498 54.4479 58.844C43.9949 49.797 18.7039 19.375 4.05691 0H6.56291C21.2259 19.288 45.5799 48.524 55.7549 57.333C60.7319 61.642 65.5029 62.618 70.1179 63.563L70.1229 63.564C75.8859 64.742 81.3289 65.856 85.3009 73.585C88.5559 79.918 90.3859 80.562 94.4469 79.513C91.4119 79.62 89.1429 77.944 86.2989 72.243C82.8489 65.33 78.4769 64.414 72.9399 63.255C68.4499 62.316 63.3599 61.251 58.0379 56.662C47.2679 47.376 21.7979 18.312 7.40591 0H9.97791C24.4549 18.232 49.1379 46.348 59.3439 55.147C64.2739 59.399 68.8879 60.364 73.3489 61.297H73.3509C78.9339 62.467 84.2069 63.57 88.0879 71.35C89.9409 75.063 91.4239 76.865 93.0469 77.377C94.0399 77.689 95.1969 77.541 96.6049 77.165C93.8349 77.178 91.7149 75.458 89.0709 69.99C85.7079 63.04 81.4929 62.136 76.1569 60.992H76.1539C71.8139 60.062 66.8949 59.008 61.6259 54.483C50.4649 44.901 24.6949 17.086 10.6899 0H13.2729C27.3899 17.058 52.0879 43.659 62.9299 52.965C67.8129 57.159 72.2669 58.113 76.5739 59.035L76.5759 59.036C81.9799 60.194 87.0839 61.289 90.8729 69.119C92.6129 72.719 94.0679 74.54 95.5849 75.025C97.0379 75.488 98.8729 74.855 101.414 73.975L101.419 73.973C104.291 72.978 108.223 71.617 113.682 71.197C124.369 70.384 133.258 70.357 141.856 70.33C150.527 70.303 158.404 70.275 166.621 69.417C159.949 69.631 153.389 69.248 146.31 68.827C137.828 68.323 129.053 67.802 118.673 68.245C113.202 68.482 109.539 69.925 106.597 71.083C101.197 73.21 98.4319 73.857 94.6259 65.476C91.4329 58.446 87.5359 57.568 82.6009 56.457C78.5569 55.547 73.9729 54.513 68.8099 50.117C56.6389 39.755 30.2869 15.234 16.9259 0H19.6139C32.9669 14.888 57.9139 38.212 70.1059 48.595C74.8929 52.67 79.2209 53.646 83.0389 54.506C88.2989 55.69 92.8409 56.713 96.4459 64.648C99.6359 71.671 101.077 71.106 105.864 69.222L105.866 69.221C108.785 68.072 112.781 66.499 118.586 66.247C129.074 65.799 137.897 66.323 146.427 66.83C155.826 67.39 164.298 67.884 173.313 66.97C165.651 67.118 158.285 66.227 150.669 65.298L150.54 65.282C142.203 64.265 133.575 63.212 123.508 63.302C117.832 63.353 114.033 65.061 111.258 66.308L111.248 66.312C108.843 67.393 106.943 68.247 105.032 67.498C103.285 66.814 101.832 64.861 100.177 60.968C97.1529 53.855 93.7549 53.046 89.0519 51.928C85.4839 51.079 81.0419 50.022 75.9919 45.756C72.5399 42.841 67.9119 39.112 63.0099 35.166C49.1799 24.025 32.3189 10.441 23.1069 0.347C22.6638 0.244683 22.224 0.128963 21.7879 0L29.1519 0C28.9799 0.105 28.7979 0.2 28.6059 0.282C36.5899 8.69 50.2989 18.877 62.5629 27.985L62.5889 28.005C69.5549 33.178 76.1329 38.065 80.8649 42.043C85.4999 45.942 89.3519 46.885 92.7499 47.717C97.4289 48.862 101.471 49.851 104.798 57.95C106.128 61.188 107.264 62.894 108.373 63.32C109.42 63.718 110.819 63.048 112.758 62.117L112.762 62.115C115.658 60.725 119.61 58.827 125.682 58.827H125.809L125.94 58.828C136.068 58.924 144.74 60.255 153.126 61.543C163.269 63.101 172.353 64.485 182.242 63.476C173.657 63.502 165.539 61.756 157.125 59.933L157.113 59.931C148.923 58.156 140.454 56.321 130.756 55.881C124.882 55.609 121.175 57.644 118.459 59.134L118.427 59.152C116.327 60.304 114.671 61.212 112.928 60.576C111.286 59.972 110.002 58.126 108.501 54.2C105.726 46.944 102.946 46.221 98.7369 45.126H98.7349C95.5699 44.302 91.6319 43.276 86.7579 39.212C80.8809 34.312 72.7179 29.44 64.0749 24.283C52.1709 17.183 39.8629 9.838 32.8829 1.874C32.3556 1.27669 31.8612 0.6511 31.4019 0L33.9119 0C34.0629 0.181 34.2209 0.366 34.3869 0.555C35.0466 1.29996 35.733 2.02077 36.4449 2.716C35.7244 1.86695 35.077 0.958363 34.5099 0L36.8549 0C37.3823 0.748176 37.9564 1.46227 38.5739 2.138C39.0693 2.68217 39.5812 3.21108 40.1089 3.724C39.0869 2.47 38.2829 1.231 37.6629 0H39.9459C40.6579 1.228 41.5819 2.464 42.7579 3.727C43.1479 4.145 43.5549 4.553 43.9719 4.955C42.7417 3.43499 41.7007 1.77113 40.8719 0L43.0599 0C44.0279 1.84 45.3039 3.608 46.9449 5.318C47.2417 5.62298 47.5458 5.92073 47.8569 6.211C46.3447 4.29607 45.0604 2.21172 44.0299 0L46.2499 0C47.9219 3.3 49.7989 5.556 51.1319 6.906C57.8809 13.738 67.2669 16.092 77.2039 18.584L77.2099 18.586C86.0969 20.814 95.2859 23.119 102.388 28.941C106.687 32.465 109.77 33.388 112.246 34.129C116.507 35.405 118.855 36.449 121.506 44.555C122.739 48.322 123.614 49.316 124.131 49.486C124.724 49.677 125.814 48.908 127.072 48.011L127.087 48C129.786 46.075 133.857 43.172 140.659 44C150.003 45.131 158.305 47.986 166.333 50.748C179.475 55.268 191.888 59.535 206.485 55.096C216.414 52.073 226.678 54.606 236.605 57.056L236.617 57.059L237.999 57.399V59.459L236.129 58.999C230.459 57.599 224.966 56.244 219.575 55.829C223.902 56.647 228.173 58.019 232.378 59.374C234.234 59.973 236.109 60.577 237.999 61.138V63.224C235.9 62.612 233.824 61.942 231.769 61.28L231.765 61.278C226.301 59.516 221.015 57.821 215.735 57.26C220.084 58.263 224.315 59.976 228.476 61.665C231.592 62.93 234.757 64.215 237.999 65.22V67.314C234.483 66.261 231.077 64.879 227.727 63.519H227.724C222.374 61.346 217.21 59.252 211.931 58.583C216.381 59.76 220.625 61.866 224.795 63.941L224.968 64.028C229.165 66.118 233.453 68.252 237.999 69.469V71.525C233.026 70.272 228.416 67.978 223.906 65.733H223.904C218.718 63.151 213.718 60.673 208.465 59.891C212.964 61.244 217.155 63.749 221.268 66.212C226.512 69.353 231.905 72.582 237.999 73.551V75.578C231.421 74.622 225.758 71.232 220.249 67.934L220.24 67.928C212.915 63.541 205.982 59.41 197.598 61.392C204.101 62.077 209.376 66.467 214.514 70.755L214.597 70.825C220.478 75.735 226.538 80.793 234.627 80.549C235.696 80.518 236.821 80.466 237.999 80.394V82.397C236.843 82.467 235.738 82.517 234.686 82.548C234.479 82.554 234.272 82.558 234.068 82.558C225.534 82.558 219.285 77.342 213.235 72.293L213.233 72.291C208.516 68.353 203.981 64.588 198.647 63.572C203.381 65.397 207.354 69.249 211.241 73.03L211.283 73.071C216.905 78.542 222.707 84.187 230.906 83.903C233.049 83.829 235.426 83.67 237.999 83.434V85.42C235.387 85.668 233.031 85.831 230.974 85.902C230.747 85.91 230.521 85.914 230.297 85.914C221.614 85.914 215.635 80.097 209.848 74.465L209.846 74.463C203.708 68.493 197.912 62.856 189.45 64.919C189.362 64.9409 189.274 64.9609 189.186 64.979C195.831 65.919 200.384 71.829 204.81 77.594L204.828 77.618C209.874 84.193 215.09 90.988 223.459 90.611C227.511 90.431 232.446 89.928 237.999 89.173V91.189C232.489 91.933 227.586 92.429 223.549 92.609C223.287 92.621 223.028 92.627 222.772 92.627C213.827 92.627 208.441 85.61 203.226 78.816L203.223 78.812L203.217 78.805C197.871 71.839 192.82 65.258 184.414 67.179C184.282 67.209 184.153 67.236 184.023 67.263L183.712 67.329C190.506 68.414 194.551 75.382 198.479 82.177C203.12 90.204 207.509 97.791 216.013 97.322C221.739 97.01 229.335 96.017 237.999 94.562V96.585C229.387 98.025 221.833 99.008 216.122 99.319C215.831 99.335 215.542 99.343 215.26 99.343C206.093 99.343 201.346 91.133 196.75 83.183L196.747 83.178C193.041 76.766 189.497 70.652 183.889 69.415C189.011 71.888 192.219 78.247 195.342 84.476C199.653 93.069 203.727 101.186 212.292 100.676C218.778 100.29 227.753 99.001 237.999 97.146V99.174C227.814 101.011 218.888 102.286 212.412 102.672C212.107 102.69 211.805 102.7 211.51 102.7C202.244 102.701 197.829 93.898 193.555 85.375L193.554 85.372L193.547 85.36C190.066 78.417 186.742 71.79 181.045 70.547C186.266 73.122 189.28 80.024 192.213 86.779C196.189 95.937 199.944 104.582 208.57 104.03C215.775 103.565 226.166 101.949 237.999 99.666V101.701C226.234 103.962 215.9 105.561 208.699 106.026C208.386 106.047 208.073 106.057 207.76 106.057C198.403 106.057 194.326 96.667 190.378 87.577V87.575C187.142 80.123 184.044 73.019 178.313 71.713C183.584 74.417 186.376 81.834 189.092 89.085L189.134 89.199L189.135 89.198ZM103.594 79.033C104.504 78.8731 105.417 78.7347 106.333 78.618C110.733 78.07 114.866 77.601 118.786 77.181C115.659 77.454 112.411 77.763 108.997 78.134C106.985 78.355 105.205 78.673 103.594 79.033ZM124.4 74.713C120.327 74.938 116.05 75.233 111.417 75.663C109.489 75.8418 107.574 76.1495 105.687 76.584C106.714 76.4069 107.745 76.2609 108.781 76.146C113.979 75.5855 119.186 75.1084 124.4 74.713ZM129.624 72.448C124.713 72.552 119.532 72.758 113.833 73.191C111.844 73.3432 109.87 73.6481 107.928 74.103C109.024 73.9189 110.126 73.7744 111.233 73.67C117.961 73.048 123.964 72.696 129.624 72.448ZM125.921 60.828H125.686C123.345 60.828 121.351 61.145 119.606 61.6C120.893 61.4136 122.191 61.3141 123.491 61.302C133.732 61.233 142.472 62.283 150.912 63.313C151.817 63.423 152.711 63.533 153.601 63.639L153.211 63.579L152.823 63.52L152.813 63.519C144.499 62.242 135.902 60.921 125.921 60.828ZM61.3709 29.591C48.5999 20.107 34.2699 9.46 26.2899 0.733C26.2623 0.734178 26.2346 0.734845 26.2069 0.735C35.5719 10.495 51.2649 23.136 64.2649 33.607L64.3449 33.672C69.4339 37.772 73.8309 41.313 77.2829 44.228C81.9689 48.188 85.9789 49.141 89.5149 49.982C94.3889 51.142 98.5979 52.143 102.017 60.185C103.405 63.447 104.594 65.179 105.761 65.636C106.462 65.911 107.303 65.756 108.334 65.377C108.103 65.3342 107.876 65.2706 107.657 65.187C105.953 64.532 104.544 62.595 102.949 58.71C100.007 51.552 96.7639 50.758 92.2759 49.66C88.8429 48.82 84.5719 47.773 79.5779 43.573C74.8869 39.629 68.3219 34.753 61.3709 29.591ZM159.266 58.124C151.137 56.105 142.732 54.018 133.171 53.406C130.688 53.247 128.604 53.536 126.818 54.038C128.046 53.883 129.38 53.816 130.846 53.883C140.712 54.332 149.264 56.184 157.534 57.975L157.548 57.978C160.203 58.553 162.826 59.118 165.442 59.624C163.38 59.1387 161.321 58.6387 159.266 58.124ZM90.3459 37.026C84.1479 31.897 75.7049 27.533 66.7649 22.913C63.8849 21.425 60.9839 19.924 58.1389 18.384C60.4529 19.788 62.7729 21.182 65.0989 22.566C73.8119 27.764 82.0409 32.674 88.0389 37.676C92.5669 41.453 96.1089 42.375 99.2349 43.189L99.2409 43.19C103.703 44.351 107.226 45.268 110.369 53.485C111.573 56.632 112.635 58.337 113.618 58.698C114.169 58.902 114.862 58.712 115.723 58.311C115.7 58.304 115.677 58.299 115.654 58.295C115.626 58.289 115.598 58.283 115.57 58.273C113.967 57.699 112.723 55.865 111.277 51.943C108.587 44.642 105.957 43.935 101.977 42.867H101.975C98.9379 42.051 95.1599 41.037 90.3469 37.027L90.3459 37.026ZM161.41 56.306C153.346 54.047 145.007 51.711 135.589 50.933C133.087 50.725 130.997 51.009 129.212 51.527C130.567 51.3601 131.935 51.3209 133.298 51.41C143.038 52.033 151.534 54.143 159.748 56.183C162.893 56.964 165.995 57.733 169.092 58.394C166.544 57.742 163.991 57.029 161.41 56.306ZM69.8109 21.884L69.8029 21.88C68.3724 21.2638 66.944 20.6424 65.5179 20.016L67.6829 21.136L67.6949 21.143C76.3309 25.607 85.2599 30.222 91.6249 35.488C96.1019 39.219 99.4969 40.13 102.494 40.934C106.746 42.076 110.106 42.978 113.154 51.251C114.306 54.377 115.317 56.058 116.244 56.391C116.747 56.571 117.393 56.372 118.199 55.967C116.643 55.417 115.441 53.594 114.055 49.687C111.445 42.327 109.097 41.674 105.207 40.593C102.302 39.786 98.6869 38.781 93.9399 34.846C87.4969 29.53 78.5059 25.643 69.8109 21.884ZM140.419 45.985C137.913 45.682 135.84 45.945 134.082 46.485C135.452 46.3325 136.835 46.3282 138.206 46.472C147.683 47.435 156.051 50.045 164.144 52.57C168.14 53.816 172.069 55.04 176.011 56.018C172.581 55.008 169.158 53.834 165.684 52.639L165.666 52.633C157.74 49.908 149.546 47.09 140.419 45.985ZM163.542 54.477C155.546 51.983 147.278 49.404 138.003 48.461C135.508 48.208 133.431 48.481 131.661 49.005C133.019 48.8464 134.39 48.8243 135.753 48.939C145.355 49.733 153.782 52.093 161.931 54.375L161.95 54.38C165.51 55.377 169.017 56.354 172.526 57.17C169.546 56.345 166.567 55.421 163.548 54.48L163.542 54.477ZM73.1689 21.127L73.1549 21.121L72.7949 20.998C80.9189 24.525 89.1009 28.261 95.2139 33.305C99.6339 36.968 102.879 37.87 105.744 38.666C109.788 39.79 112.983 40.678 115.94 49.018C117.041 52.124 118.001 53.782 118.872 54.086C119.331 54.244 119.951 54.026 120.704 53.618C119.251 53.035 118.117 51.228 116.83 47.433C114.288 40.016 112.208 39.415 108.433 38.325L108.424 38.322C105.653 37.521 102.203 36.522 97.5299 32.669C90.9069 27.225 81.8899 24.125 73.1699 21.126L73.1689 21.127ZM118.724 46.788C119.756 49.836 120.687 51.518 121.492 51.791C121.909 51.936 122.504 51.694 123.236 51.262C121.881 50.647 120.809 48.852 119.607 45.177C117.157 37.687 115.209 37.104 111.676 36.046H111.674C109.026 35.253 105.73 34.266 101.122 30.488C95.0959 25.548 87.3119 23.226 79.5469 21.238C86.5399 23.761 93.3769 26.668 98.7999 31.126C103.161 34.72 106.391 35.653 108.987 36.403H108.989C112.967 37.553 115.842 38.384 118.724 46.788Z" fill="url(#paint0_linear_3_3214)"/>
</g>
<defs>
<linearGradient id="paint0_linear_3_3214" x1="369.483" y1="-84.633" x2="139.954" y2="-199.798" gradientUnits="userSpaceOnUse">
<stop stop-color="white" stop-opacity="0.01"/>
<stop offset="1" stop-color="white" stop-opacity="0.24"/>
</linearGradient>
<clipPath id="clip0_3_3214">
<rect width="238" height="110" fill="white"/>
</clipPath>
</defs>
</svg>
