<svg width="128" height="32" viewBox="0 0 128 32" fill="none" xmlns="http://www.w3.org/2000/svg">
<path d="M48 16C48 7.16344 55.1634 0 64 0V0C72.8366 0 80 7.16344 80 16V16C80 24.8366 72.8366 32 64 32V32C55.1634 32 48 24.8366 48 16V16Z" fill="#25282C"/>
<path d="M62.023 24L62 17H59V14H62V12C62 9.3 63.672 8 66.08 8C67.233 8 68.224 8.086 68.513 8.124V10.945H66.843C65.533 10.945 65.28 11.568 65.28 12.481V14H69L68 17H65.28V24H62.023Z" fill="black"/>
<path d="M0 16C0 7.16344 7.16344 0 16 0V0C24.8366 0 32 7.16344 32 16V16C32 24.8366 24.8366 32 16 32V32C7.16344 32 0 24.8366 0 16V16Z" fill="#25282C"/>
<path d="M13.063 9L16.558 13.475L20.601 9H23.055L17.696 14.931L24 23H19.062L15.196 18.107L10.771 23H8.316L14.051 16.658L8 9H13.063ZM12.323 10.347H10.866L19.741 21.579H21.101L12.323 10.347Z" fill="black"/>
<path d="M96 16C96 7.16344 103.163 0 112 0V0C120.837 0 128 7.16344 128 16V16C128 24.8366 120.837 32 112 32V32C103.163 32 96 24.8366 96 16V16Z" fill="#25282C"/>
<path d="M119.3 8H104.7C104.3 8 104 8.3 104 8.7V23.4C104 23.7 104.3 24 104.7 24H119.4C119.8 24 120.1 23.7 120.1 23.3V8.7C120 8.3 119.7 8 119.3 8ZM108.7 21.6H106.4V14H108.8V21.6H108.7ZM107.6 13C106.8 13 106.2 12.3 106.2 11.6C106.2 10.8 106.8 10.2 107.6 10.2C108.4 10.2 109 10.8 109 11.6C108.9 12.3 108.3 13 107.6 13ZM117.6 21.6H115.2V17.9C115.2 17 115.2 15.9 114 15.9C112.8 15.9 112.6 16.9 112.6 17.9V21.7H110.2V14H112.5V15C112.8 14.4 113.6 13.8 114.7 13.8C117.1 13.8 117.5 15.4 117.5 17.4V21.6H117.6Z" fill="black"/>
</svg>
