<svg width="12" height="12" viewBox="0 0 12 12" fill="none" xmlns="http://www.w3.org/2000/svg">
<g clip-path="url(#clip0_3_1592)">
<path d="M10.2801 4.30502L5.98912 8.59802L1.69512 4.30502C1.60221 4.21211 1.49191 4.13841 1.37051 4.08813C1.24912 4.03784 1.11901 4.01196 0.987617 4.01196C0.856222 4.01196 0.726113 4.03784 0.60472 4.08813C0.483327 4.13841 0.373027 4.21211 0.280117 4.30502C0.092476 4.49266 -0.0129395 4.74716 -0.0129395 5.01252C-0.0129395 5.27788 0.092476 5.53238 0.280117 5.72002L5.28012 10.72C5.46764 10.9075 5.72195 11.0128 5.98712 11.0128C6.25228 11.0128 6.50659 10.9075 6.69412 10.72L11.6941 5.72002C11.7896 5.62777 11.8658 5.51743 11.9182 5.39542C11.9706 5.27342 11.9982 5.1422 11.9994 5.00942C12.0005 4.87664 11.9752 4.74496 11.9249 4.62207C11.8747 4.49917 11.8004 4.38752 11.7065 4.29363C11.6126 4.19973 11.501 4.12548 11.3781 4.0752C11.2552 4.02492 11.1235 3.99962 10.9907 4.00077C10.8579 4.00192 10.7267 4.02951 10.6047 4.08192C10.4827 4.13433 10.3724 4.21051 10.2801 4.30602V4.30502Z" fill="black"/>
</g>
<defs>
<clipPath id="clip0_3_1592">
<rect width="12" height="12" fill="white"/>
</clipPath>
</defs>
</svg>
