<svg width="722" height="320" viewBox="0 0 722 320" fill="none" xmlns="http://www.w3.org/2000/svg">
<g clip-path="url(#clip0_3_1489)">
<path d="M292.512 0H290.027C294.127 5.637 298.17 10.76 302.212 15.446C311.308 25.998 321.255 34.62 331.795 41.09L332.872 41.743C343.822 48.288 356.525 53.194 370.627 56.324C381.457 58.728 393.545 60.48 407.428 61.654C409.411 61.821 411.431 61.977 413.489 62.121L422.172 62.707L435.974 63.615C443.229 64.096 450.583 64.607 457.787 65.205C473.649 66.525 487.451 68.592 499.977 71.528C512.917 74.565 525.633 79.071 537.77 84.92C548.634 90.182 558.982 96.008 571.027 103.076L575.917 105.957L584.178 110.839L593.114 116.133C597.547 118.763 601.916 121.358 606.164 123.883L717.914 190.737L717.612 208.048L598.479 136.778L590.453 132.023C584.714 128.621 578.974 125.219 573.227 121.822L564.6 116.729L562.38 115.425C552.646 109.723 541.478 103.373 529.756 97.949C517.516 92.343 504.427 88.166 490.854 85.533C478.147 83.067 464.009 81.397 447.632 80.43C442.498 80.126 437.283 79.853 432.133 79.593L419.434 78.959C413.933 78.681 408.363 78.387 402.885 78.056C386.607 77.073 372.643 75.266 360.194 72.536C346.272 69.482 333.76 64.671 323.005 58.239L322.789 58.109C312.115 51.694 302.046 43.013 292.863 32.305C285.074 23.225 277.413 12.635 269.491 0H267.116C275.347 13.22 283.278 24.228 291.331 33.613C300.418 44.202 310.364 52.845 320.916 59.323L321.966 59.961C332.916 66.507 345.629 71.397 359.752 74.494C372.295 77.247 386.362 79.068 402.752 80.059C409.321 80.455 416.018 80.798 422.571 81.125L431.983 81.595C437.14 81.855 442.363 82.128 447.502 82.432C463.796 83.396 477.848 85.054 490.461 87.502C503.899 90.111 516.836 94.239 528.907 99.772C540.251 105.022 550.97 111.039 563.575 118.458C574.809 125.081 586.012 131.731 597.195 138.369L597.329 138.448L717.605 210.4L717.487 217.011L708.109 222.211L589.736 151.397L584.123 148.064C577.959 144.404 571.79 140.742 565.612 137.084L555.884 131.335C545.615 125.282 533.595 118.355 520.899 112.748C508.847 107.463 495.581 103.578 481.469 101.199C468.799 99.062 454.529 97.619 437.848 96.787C434.72 96.6332 431.592 96.4845 428.464 96.341L416.134 95.772C408.454 95.412 400.67 95.02 393.043 94.532C376.97 93.503 363.057 91.613 350.51 88.757C337.047 85.687 324.867 80.997 314.289 74.811L313.189 74.159C302.508 67.739 292.407 59.114 283.164 48.521C274.741 38.87 266.536 27.569 258.078 13.974C255.218 9.376 252.366 4.689 249.543 0H247.19C250.22 5.04 253.287 10.089 256.364 15.034C264.886 28.724 273.153 40.109 281.64 49.839C290.757 60.295 300.718 68.868 311.263 75.342L312.37 76.012C323.327 82.563 336.003 87.508 350.048 90.71C362.68 93.59 376.696 95.494 392.898 96.532C400.526 97.02 408.308 97.412 415.982 97.772L424.875 98.183C429.165 98.38 433.452 98.578 437.732 98.79L440.475 98.933C455.894 99.773 469.215 101.165 481.12 103.174C495.072 105.526 508.18 109.366 520.077 114.584C531.809 119.763 542.982 126.095 552.714 131.805L554.852 133.063C561.13 136.768 567.404 140.481 573.673 144.202L588.686 153.113L706.059 223.33L690.862 231.755L580.969 166.016C569.699 159.306 558.418 152.613 547.127 145.937L544.614 144.457C534.506 138.519 523.703 132.434 512.054 127.478C500.099 122.43 486.728 118.719 472.313 116.452C459.62 114.455 445.733 113.106 428.608 112.204L413.945 111.441C404 110.916 393.891 110.342 384.039 109.575C368.217 108.344 354.426 106.254 341.877 103.188C328.196 99.847 315.774 94.872 304.952 88.405L304.714 88.263C293.988 81.816 283.825 73.298 274.502 62.942C265.899 53.382 257.575 42.284 249.055 29.011C242.975 19.536 236.972 9.662 231.134 0H228.798C230.307 2.496 231.83 5.009 233.358 7.525C236.291 12.355 239.255 17.203 242.252 21.999C242.717 22.744 243.185 23.479 243.653 24.216C243.931 24.654 244.209 25.091 244.486 25.531L246.408 28.577L247.376 30.097C255.949 43.458 264.339 54.641 273.022 64.287C282.21 74.493 292.208 82.942 302.758 89.418L303.932 90.13C314.923 96.699 327.532 101.749 341.406 105.139C354.067 108.231 367.962 110.337 383.889 111.576C393.754 112.344 403.866 112.919 413.814 113.444L428.509 114.21C445.523 115.101 459.345 116.444 472.007 118.435C486.261 120.677 499.475 124.342 511.279 129.327C523.77 134.641 535.338 141.3 546.117 147.666C557.423 154.346 568.698 161.047 579.953 167.742L688.848 232.886L673.657 241.318L538.458 160.437L535.03 158.454C525.379 152.885 514.659 146.875 503.287 142.148C491.435 137.221 478.042 133.554 463.478 131.247L461.723 130.975C449.966 129.181 436.988 127.842 421.153 126.788L411.59 126.161C399.698 125.373 387.586 124.515 375.837 123.351C360.315 121.813 346.689 119.45 334.177 116.128C320.696 112.548 308.348 107.436 297.475 100.937L297.217 100.782C286.449 94.311 276.207 85.927 266.771 75.862C257.952 66.452 249.463 55.626 240.818 42.761C234.008 32.625 227.416 22.165 221.009 11.891L217.188 5.752C215.992 3.82946 214.787 1.91211 213.574 0L211.197 0C212.639 2.26542 214.07 4.53812 215.489 6.818L219.328 12.984C225.763 23.304 232.377 33.797 239.159 43.884C247.866 56.844 256.421 67.754 265.311 77.237C274.584 87.131 284.631 95.422 295.193 101.902L296.449 102.663C307.479 109.257 319.999 114.44 333.663 118.069C346.277 121.42 360.007 123.801 375.639 125.35C388.638 126.638 402.061 127.551 415.147 128.409L419.829 128.714L423.362 128.952C438.852 130.031 451.577 131.401 463.164 133.232C477.556 135.508 490.797 139.131 502.518 144.003C515.133 149.246 526.992 156.116 537.443 162.17L537.447 162.172L671.616 242.437L656.422 250.855L529.717 175.056L526.293 173.063C516.651 167.465 505.942 161.426 494.587 156.686C482.803 151.766 469.459 148.022 454.927 145.557L453.295 145.284C442.078 143.436 429.517 141.924 414.087 140.564L411.809 140.366C406.681 139.928 401.597 139.486 396.559 139.025L393.877 138.777C391.641 138.568 389.416 138.353 387.198 138.133C383.877 137.803 380.559 137.455 377.242 137.089C375.615 136.909 373.988 136.722 372.362 136.529L368.276 136.037C353.042 134.129 339.603 131.455 327.188 127.86C313.906 124.014 301.638 118.755 290.723 112.233C279.807 105.698 269.38 97.408 259.744 87.571C250.729 78.368 242.054 67.851 233.224 55.42C232.012 53.7119 230.809 51.9978 229.614 50.278C223.71 41.783 217.903 33.008 212.331 24.48L207.668 17.333C203.508 10.976 199.646 5.249 195.977 0H193.534C197.623 5.816 201.949 12.229 206.664 19.453L210.227 24.919C216.058 33.851 222.168 43.097 228.455 52.117C229.501 53.617 230.548 55.107 231.599 56.585C240.487 69.102 249.228 79.697 258.321 88.978C267.694 98.545 277.802 106.673 288.386 113.159L289.703 113.956C300.764 120.568 313.19 125.894 326.636 129.788C339.151 133.412 352.693 136.108 368.033 138.028L369.68 138.22C373.499 138.688 377.322 139.122 381.149 139.523C383.105 139.731 385.068 139.932 387.039 140.127L390.309 140.447L395.032 140.893L396.475 141.026C400.241 141.369 404.02 141.707 407.827 142.038L413.913 142.564C430.029 143.984 443.007 145.571 454.596 147.537C468.98 149.976 482.176 153.677 493.823 158.539C506.446 163.807 518.276 170.708 528.706 176.792L528.709 176.794L654.41 251.991L639.219 260.413L520.978 189.678L516.394 186.999C507.063 181.568 496.775 175.783 485.963 171.141C474.127 166.06 461.268 162.237 446.648 159.453L445.098 159.161C433.69 157.04 421.261 155.261 405.199 153.449L399.487 152.807C387.51 151.452 374.139 149.853 361.251 147.862C346.309 145.554 333.064 142.553 320.755 138.687C307.685 134.584 295.496 129.181 284.529 122.624L284.255 122.46L282.903 121.62L282.677 121.481C281.918 121.015 281.16 120.549 280.405 120.065C272.669 115.092 265.166 109.315 258.024 102.83C257.87 102.69 257.714 102.55 257.558 102.412C257.35 102.228 257.144 102.042 256.939 101.854L256.694 101.622C255.541 100.554 254.401 99.4718 253.276 98.375C244.066 89.391 235.194 79.199 226.151 67.213L224.644 65.206C217.375 55.486 210.294 45.406 202.115 33.543L200.02 30.507C191.451 18.119 184.439 8.547 177.667 0H175.01L175.361 0.44C182.3 9.152 189.46 18.903 198.281 31.652L202.885 38.322C210.595 49.462 217.4 59.07 224.459 68.426C233.564 80.492 242.502 90.758 251.783 99.814C253.752 101.728 255.763 103.598 257.816 105.421C258.013 105.596 258.209 105.773 258.405 105.951C258.699 106.217 258.993 106.483 259.291 106.742L260.215 107.526C266.318 112.782 272.659 117.536 279.182 121.721C280.157 122.344 281.139 122.955 282.128 123.556L282.235 123.621L283.406 124.349C294.51 130.986 306.842 136.453 320.062 140.601C332.465 144.498 345.807 147.522 360.85 149.845C372.649 151.669 384.841 153.163 396.003 154.442L405.968 155.568C422.205 157.417 434.682 159.236 446.178 161.425C460.644 164.177 473.368 167.958 485.078 172.986C497.615 178.369 509.439 185.3 519.865 191.413L637.075 261.531L621.884 269.952L512.24 204.3L508.656 202.191C497.995 195.931 488.103 190.262 477.627 185.033C464.968 179.947 451.908 175.92 438.582 172.995L437.063 172.665C426.389 170.369 414.763 168.335 399.952 166.175L391.135 164.907C379.721 163.255 367.04 161.328 354.619 159.02C339.963 156.295 326.91 152.966 314.715 148.844C301.829 144.487 289.716 138.945 278.712 132.368L278.46 132.216C278.073 131.983 277.687 131.741 277.301 131.5L276.689 131.119L275.257 130.238C275.019 130.09 274.781 129.94 274.544 129.789C268.435 125.88 262.56 121.618 256.949 117.023L254.705 115.177C254.484 114.99 254.265 114.801 254.048 114.61C253.896 114.477 253.744 114.344 253.59 114.212C251.418 112.358 249.286 110.458 247.197 108.511C237.824 99.758 228.756 89.889 219.477 78.34C211.23 68.077 203.101 57.21 195.48 46.866L193.855 44.659C183.674 30.813 175.685 20.578 167.949 11.472C164.609 7.54077 161.146 3.71491 157.567 0L154.775 0C158.814 4.13 162.705 8.395 166.427 12.773L167.906 14.523C174.825 22.761 182.051 32.033 190.961 44.105L192.245 45.849C200.324 56.835 209.024 68.529 217.918 79.598C227.24 91.2 236.37 101.137 245.835 109.977C255.731 119.223 266.325 127.262 277.328 133.875L277.688 134.09C288.814 140.74 301.056 146.343 314.078 150.744C326.363 154.897 339.505 158.249 354.255 160.99C366.975 163.352 379.774 165.307 394.924 167.478L396.447 167.695C413.55 170.141 426.413 172.379 438.155 174.952C451.36 177.852 464.301 181.842 476.847 186.881C488.415 192.66 499.709 199.236 511.218 206.023L619.96 271.077L604.77 279.498L503.51 218.923L500.042 216.873C497.786 215.541 495.526 214.215 493.263 212.895L490.573 211.329L488.998 210.421L486.328 208.889C480.593 205.616 474.928 202.491 469.109 199.476L469.043 199.444C456.496 194.028 443.584 189.607 430.664 186.305L428.431 185.742C418.193 183.191 406.988 180.841 392.776 178.265L383.324 176.571C381.787 176.294 380.273 176.019 378.779 175.746L375.047 175.059L372.533 174.59L368.943 173.914L367.147 173.57L363.873 172.934L361.923 172.55L358.628 171.892L356.84 171.526L353.316 170.798C352.367 170.599 351.422 170.393 350.476 170.19L349.885 170.064C349.346 169.949 348.807 169.835 348.27 169.717C333.888 166.573 321.026 162.92 308.948 158.554C305.785 157.411 302.649 156.196 299.542 154.909C290.373 151.106 281.622 146.727 273.417 141.843L273.138 141.681C263.221 135.7 253.534 128.701 244.361 120.787L243.217 119.793L242.563 119.223C242.174 118.885 241.785 118.547 241.4 118.203C231.85 109.652 222.588 100.101 213.084 89.002C204.614 79.116 196.234 68.665 188.37 58.719L185.341 54.886C175.513 42.486 167.646 33.128 159.995 24.728C152.056 16.018 143.375 7.725 134.105 0H130.967C140.832 8.07 150.093 16.835 158.514 26.073L159.527 27.189C166.636 35.049 174.034 43.867 183.142 55.335L188.496 62.102C195.876 71.412 203.677 81.098 211.561 90.302C221.129 101.47 230.452 111.084 240.062 119.691C240.386 119.981 240.714 120.266 241.042 120.551L241.642 121.073L242.221 121.583C242.773 122.069 243.325 122.556 243.883 123.033L244.169 123.273C252.591 130.446 261.417 136.871 270.49 142.417L271.931 143.289L272.394 143.561C280.67 148.491 289.508 152.913 298.775 156.755C301.912 158.056 305.078 159.284 308.271 160.438C320.405 164.829 333.35 168.503 347.846 171.673L348.945 171.909L352.903 172.753L354.608 173.106C355.816 173.357 357.026 173.608 358.245 173.855L361.492 174.503L364.169 175.03L367.347 175.644L370.597 176.261L373.595 176.824L378.572 177.741L383.639 178.66L392.421 180.235C407.63 182.991 419.377 185.486 430.173 188.245C442.949 191.509 455.75 195.89 468.22 201.269L470.124 202.269L470.913 202.683C471.444 202.961 471.976 203.24 472.504 203.522L473.609 204.12C474.678 204.694 475.746 205.268 476.809 205.85L477.898 206.454L477.904 206.457C478.957 207.038 480.011 207.619 481.063 208.208L482.671 209.118C483.548 209.611 484.424 210.104 485.299 210.603L488.341 212.351L490.42 213.553C494.432 215.882 498.442 218.251 502.477 220.644L602.743 280.625L587.553 289.047L494.774 233.546C483.911 227.043 472.321 220.163 460.511 213.786C448.668 208.275 436.085 203.328 423.065 199.067C410.772 195.755 397.561 192.587 382.678 189.385L377.754 188.323C366.185 185.819 354.075 183.126 342.112 180.112C328.009 176.561 315.329 172.598 303.35 167.995C290.781 163.166 278.804 157.37 267.754 150.765C256.747 144.21 245.957 136.387 235.764 127.621C226.073 119.286 216.622 110.041 206.867 99.358C198.554 90.255 190.526 80.942 182.933 72.028L177.682 65.859C168.635 55.27 160.334 45.956 152.336 37.424C142.574 28.029 132.421 19.316 122.113 11.493C116.271 7.586 110.405 3.853 104.161 0H100.319C107.612 4.462 114.315 8.696 120.943 13.13C131.174 20.896 141.267 29.557 150.905 38.836L152.68 40.736C160.395 49.03 168.434 58.097 177.162 68.349L183.042 75.259C190.974 84.549 198.059 92.691 205.383 100.714C215.216 111.478 224.724 120.779 234.453 129.146C239.51 133.497 244.747 137.636 250.149 141.552C250.902 142.097 251.659 142.629 252.417 143.162L252.795 143.428L254.098 144.351C254.985 144.965 255.877 145.564 256.769 146.162L256.911 146.257L258.19 147.122L259.12 147.725L260.051 148.325L260.458 148.588C261.131 149.025 261.805 149.461 262.482 149.887L262.918 150.155C264.031 150.853 265.146 151.546 266.267 152.22L266.72 152.491C277.889 159.16 289.969 165.008 302.624 169.871C314.656 174.497 327.411 178.484 341.615 182.058C354.404 185.278 367.643 188.198 379.353 190.725L382.247 191.349C397.096 194.543 410.274 197.702 422.483 200.992C435.39 205.215 447.888 210.128 459.632 215.594C470.715 221.583 481.52 227.966 491.702 234.06L585.514 290.182L570.323 298.603L486.023 248.174C475.74 242.019 465.634 236.002 455.359 230.198L451.885 228.248C440.127 222.428 427.775 217.108 415.13 212.419C403.431 208.665 391.082 205.102 377.434 201.541L369.177 199.4C358.218 196.553 347.027 193.602 335.986 190.427C322.079 186.428 309.584 182.151 297.785 177.352C285.851 172.495 274.413 166.86 263.763 160.59L261.885 159.474C251 152.932 240.331 145.357 230.169 136.955C220.362 128.85 210.722 119.913 200.697 109.632L198.819 107.701C191.019 99.655 183.485 91.558 174.805 82.164L172.699 79.884C162.71 69.065 153.449 59.528 144.354 50.699C134.387 41.829 124.012 33.499 113.474 25.909C103.183 19.239 92.564 12.807 82.464 6.755L71.17 0H67.26L79.272 7.186C89.895 13.542 101.204 20.35 112.338 27.564C122.775 35.084 133.098 43.371 142.985 52.168C152.016 60.939 161.252 70.45 171.222 81.245L175.787 86.185C183.16 94.154 191.186 102.762 199.258 111.033C209.337 121.367 219.029 130.353 228.885 138.502C239.123 146.965 249.868 154.594 260.832 161.184L261.344 161.491C272.471 168.142 284.476 174.103 297.024 179.211C308.887 184.039 321.448 188.34 335.425 192.354C348.818 196.2 362.84 199.833 375.209 203.037L378.377 203.864C391.472 207.307 403.32 210.737 414.468 214.314C427.01 218.966 439.297 224.257 450.946 230.021C462.382 236.404 473.573 243.063 484.984 249.893L568.296 299.73L553.108 308.149L469.733 258.279C460.784 252.94 452.723 248.17 444.423 243.394L443.256 242.725C431.482 236.56 419.439 230.925 407.161 225.837C395.004 221.339 382.07 216.986 368.721 212.897L356.038 209.02C352.816 208.033 349.573 207.035 346.327 206.028C340.817 204.323 335.318 202.582 329.83 200.805C316.078 196.341 303.765 191.752 292.189 186.776C279.86 181.479 268.012 175.446 256.967 168.846C245.951 162.271 235.015 154.679 224.544 146.358L223.659 145.649L222.774 144.934C214.329 138.136 205.887 130.742 197.106 122.447L195.366 120.8L194.491 119.967C187.881 113.634 181.261 107.111 174.77 100.676L165.643 91.616C155.812 81.86 145.962 72.591 136.338 64.038C126.186 55.6825 115.674 47.7756 104.83 40.34L103.484 39.502C94.177 33.673 84.764 27.988 75.169 22.242L37.99 0H34.094L70.601 21.838C78.509 26.568 86.283 31.236 93.961 35.948L96.884 37.753L99.798 39.563C100.215 39.823 100.634 40.083 101.052 40.341C101.946 40.895 102.841 41.45 103.731 42.009C114.504 49.3981 124.949 57.2546 135.036 65.556C144.609 74.062 154.432 83.307 164.232 93.034L173.435 102.17C179.907 108.587 186.509 115.093 193.106 121.41L194.134 122.386L195.158 123.355C203.797 131.544 212.11 138.866 220.418 145.601L221.665 146.607L222.339 147.151C222.659 147.409 222.978 147.668 223.298 147.922C233.335 155.903 243.769 163.221 254.42 169.65L255.946 170.564C267.064 177.209 278.995 183.283 291.403 188.616C303.037 193.616 315.407 198.227 329.217 202.71C331.961 203.6 334.722 204.483 337.491 205.359C338.97 205.826 340.453 206.286 341.934 206.748L343.168 207.135C343.992 207.394 344.817 207.653 345.642 207.909C349.048 208.966 352.451 210.013 355.831 211.048L368.14 214.811C381.453 218.889 394.35 223.229 406.436 227.7C418.633 232.76 430.6 238.359 442.3 244.48C452.292 250.215 462.075 256.029 472.686 262.375L551.075 309.267L535.881 317.692L458.451 271.375C450.519 266.63 442.57 261.916 434.602 257.232C422.996 250.844 411.158 244.889 399.111 239.379C387.323 234.468 375.061 229.724 361.612 224.87L348.596 220.328C340.27 217.416 331.824 214.441 323.527 211.427C309.96 206.495 297.829 201.594 286.441 196.445C274.237 190.926 262.448 184.78 251.4 178.178C240.113 171.404 229.217 164.002 218.761 156.005C208.83 148.417 198.813 140.089 188.134 130.547C180.087 123.356 171.999 115.952 164.117 108.717L158.468 103.53C147.98 94.094 138.101 85.591 128.24 77.514C117.829 69.5561 107.128 61.9844 96.16 54.814L93.166 52.983C82.682 46.58 72.182 40.299 62.823 34.704L4.80699 0H0.911987L72.92 43.08C80.3317 47.5184 87.7218 51.9928 95.09 56.503C106 63.6355 116.644 71.1666 127.001 79.081C136.809 87.117 146.666 95.6 157.124 105.009L159.889 107.549C168.677 115.618 177.763 123.96 186.803 132.038C197.519 141.614 207.576 149.973 217.547 157.594C227.443 165.157 237.666 172.163 247.972 178.443L250.374 179.894C261.487 186.535 273.344 192.716 285.617 198.266C297.052 203.436 309.23 208.357 322.845 213.306C331.151 216.323 339.603 219.301 347.934 222.214L360.943 226.754C374.351 231.593 386.585 236.326 398.311 241.211C410.294 246.693 422.07 252.617 433.615 258.97L436.6 260.725C444.232 265.226 451.849 269.751 459.452 274.301L535.843 320L553.06 310.454L553.068 310.459L572.31 299.792L572.307 299.79L589.52 290.247L589.516 290.245L606.757 280.687L606.754 280.685L623.966 271.142L623.965 271.141L639.158 262.717L639.173 262.726L658.416 252.057L658.399 252.046L673.599 243.623L673.611 243.63L692.853 232.951L692.842 232.944L708.056 224.51L708.071 224.519L719.466 218.2L719.624 209.251L719.592 209.232L719.894 191.907L719.914 191.919L720.298 169.968L720.28 169.958L720.584 152.611L720.601 152.622L720.984 130.671L720.979 130.668L721.281 113.335L721.285 113.337L721.667 91.387L721.656 91.38L722 71.745L602.072 0H598.178L719.98 72.867L719.677 90.197L617.142 28.856L610.093 24.749L602.453 20.288C598.214 17.812 593.974 15.335 589.728 12.864L583.054 8.992L580.745 7.665C576.211 5.06414 571.651 2.50901 567.066 0L562.864 0C568.832 3.215 575.149 6.749 582.048 10.726C586.436 13.2677 590.819 15.8174 595.198 18.375L602.731 22.775C607.196 25.383 611.659 27.991 616.116 30.581L719.648 92.518L719.346 109.846L608.401 43.474L589.235 32.369C584.243 29.4775 579.24 26.6035 574.228 23.747C561.624 16.625 550.063 10.716 538.881 5.68C534.453 3.69982 529.987 1.80613 525.486 0L520.021 0C526.097 2.34553 532.11 4.84837 538.056 7.506C549.181 12.516 560.689 18.398 573.238 25.49C579.168 28.8705 585.085 32.2739 590.989 35.7L603.866 43.164L607.383 45.198L719.301 112.151L718.999 129.485L599.657 58.089L587.136 50.883C579.96 46.756 572.646 42.581 565.354 38.551C552.933 31.724 541.169 26.13 529.392 21.446C527.876 20.846 526.346 20.256 524.803 19.676C513.997 15.609 502.521 12.006 490.614 8.942C481.523 6.618 472.261 4.55 463.202 2.647C460.181 2.012 457.182 1.394 454.22 0.793L450.3 0H440.447C442.954 0.54 445.544 1.08 448.228 1.623L449.418 1.863C462.524 4.491 476.528 7.403 490.117 10.878C491.802 11.3121 493.484 11.7582 495.163 12.216C506.87 15.413 518.115 19.136 528.655 23.306C540.375 27.968 552.063 33.528 564.39 40.302C570.83 43.864 577.29 47.539 583.656 51.192L598.639 59.814L718.964 131.797L718.662 149.132L624.693 92.915L614.271 86.739C609.47 83.89 604.662 81.043 599.849 78.196C598.647 77.485 597.447 76.773 596.247 76.061C594.445 74.9909 592.642 73.9233 590.837 72.858L587.233 70.738C577.539 65.048 567.195 59.096 556.468 53.392C544.146 46.867 532.152 41.635 519.798 37.403C507.398 33.173 493.898 29.71 479.672 27.105C466.657 24.722 453.326 22.823 440.351 21.011L437.364 20.594C420.986 18.31 407.875 15.783 396.097 12.644C384.335 9.511 373.496 5.264 363.804 0H359.702C370.315 6.161 382.375 11.065 395.575 14.583C407.434 17.743 420.622 20.283 437.08 22.579L443.058 23.414C455.064 25.099 467.326 26.884 479.306 29.076C493.433 31.663 506.839 35.103 519.145 39.299C531.395 43.499 543.295 48.687 555.523 55.165C567.555 61.56 579.115 68.279 589.816 74.585L598.838 79.921C603.645 82.765 608.451 85.611 613.248 88.458L622.451 93.92L718.604 151.437L718.3 168.774L627.212 114.281L626.207 113.681L615.918 107.525L615.054 107.012C607.846 102.734 600.636 98.456 593.415 94.184L582.074 87.487L578.43 85.348C568.634 79.615 558.217 73.681 547.549 68.248C535.324 62.068 522.73 57.098 510.114 53.476C497.564 49.891 484.015 47.224 468.694 45.324C457.963 43.993 446.91 42.916 436.121 41.891L425.176 40.853C408.632 39.267 395.26 37.183 383.093 34.291C369.691 31.103 357.552 26.361 346.992 20.184L345.903 19.538C337.306 14.371 329.064 7.818 321.325 0H318.527C326.513 8.28 335.044 15.224 343.962 20.699L345.071 21.371C356.014 27.917 368.653 32.92 382.638 36.241C394.894 39.153 408.352 41.252 424.992 42.847L439.524 44.228C449.153 45.15 458.936 46.132 468.455 47.313C483.67 49.199 497.12 51.847 509.571 55.403C522.06 58.987 534.537 63.912 546.652 70.036C557.271 75.445 567.66 81.361 577.431 87.08L581.127 89.25C591.357 95.283 601.561 101.334 611.749 107.378L718.278 171.09L717.974 188.429L607.122 122.114C602.263 119.229 597.399 116.344 592.531 113.46L573.346 102.115L570.762 100.599C559.248 93.86 549.22 88.245 538.65 83.119C526.362 77.199 513.506 72.644 500.442 69.582C487.818 66.623 473.923 64.54 457.961 63.214C450.728 62.612 443.35 62.099 436.072 61.617L422.279 60.71L413.619 60.126C411.613 59.9856 409.608 59.8309 407.604 59.662C393.811 58.496 381.81 56.757 371.068 54.372C357.542 51.37 345.331 46.715 334.761 40.532L333.722 39.916C323.037 33.494 312.948 24.822 303.734 14.14C300.011 9.823 296.285 5.13 292.512 0Z" fill="url(#paint0_linear_3_1489)"/>
</g>
<defs>
<linearGradient id="paint0_linear_3_1489" x1="-4.14001" y1="43.12" x2="303.145" y2="391.913" gradientUnits="userSpaceOnUse">
<stop stop-color="#5D5DFF" stop-opacity="0.01"/>
<stop offset="0.538" stop-color="#5D5DFF" stop-opacity="0.32"/>
<stop offset="1" stop-color="#5D5DFF" stop-opacity="0.01"/>
</linearGradient>
<clipPath id="clip0_3_1489">
<rect width="722" height="320" fill="white"/>
</clipPath>
</defs>
</svg>
