<svg width="12" height="12" viewBox="0 0 12 12" fill="none" xmlns="http://www.w3.org/2000/svg">
<g clip-path="url(#clip0_3_3017)">
<path d="M10.2801 2.28001L3.98912 8.57501L1.69512 6.28001C1.50748 6.09237 1.25298 5.98695 0.987617 5.98695C0.722253 5.98695 0.467757 6.09237 0.280117 6.28001C0.092476 6.46765 -0.0129395 6.72214 -0.0129395 6.98751C-0.0129395 7.25287 0.092476 7.50737 0.280117 7.69501L3.28012 10.695C3.46764 10.8825 3.72195 10.9878 3.98712 10.9878C4.25228 10.9878 4.50659 10.8825 4.69412 10.695L11.6941 3.69501C11.8818 3.5075 11.9872 3.25313 11.9873 2.98786C11.9874 2.72259 11.8821 2.46815 11.6946 2.28051C11.5071 2.09287 11.2527 1.9874 10.9875 1.9873C10.7222 1.98721 10.4678 2.0925 10.2801 2.28001Z" fill="black"/>
</g>
<defs>
<clipPath id="clip0_3_3017">
<rect width="12" height="12" fill="white"/>
</clipPath>
</defs>
</svg>
